<?xml version="1.0" encoding="utf-8"?>
<!-- Generator: Adobe Illustrator 26.0.3, SVG Export Plug-In . SVG Version: 6.00 Build 0)  -->
<svg version="1.0" id="Layer_1" xmlns="http://www.w3.org/2000/svg" xmlns:xlink="http://www.w3.org/1999/xlink" x="0px" y="0px"
	 viewBox="0 0 860 616.8" style="enable-background:new 0 0 860 616.8;" xml:space="preserve">
<style type="text/css">
	.st0{fill:#00DD00;}
</style>
<path class="st0" d="M508.8,305.4h-23.4v69h23.4L508.8,305.4z"/>
<path class="st0" d="M424.5,316.7c0-1.1,0-64.4,0.1-75.8h-23.4v76.1c0.1,15.2,6.1,29.7,16.9,40.5c1.2,1.2,2.4,2.4,3.7,3.4
	c10.7,8.9,23.6,13.5,38.6,13.5h13.5v-23.3h-15C439.9,351,424.5,335.7,424.5,316.7z"/>
<path class="st0" d="M669.8,272.1c-8-8.4-18.1-11.7-29.2-11.7c-11.3,0-21.5,3.7-29.3,11.7c-3.7,4-6.8,8.6-9.1,13.6
	c-2.3-5-5.4-9.5-9.2-13.6c-7.8-8.1-17.9-11.7-29.3-11.7c-11,0-21.1,3.4-29.2,11.7c-8.6,9-12.9,22-12.9,36.7c0,25.4,0,57.5,0,65.3
	h23.2c0.1-8.9,0.3-49,0.3-65.3c0-20.2,11-27.4,21.9-27.4c2.4,0,4.8,0.4,7.2,1.2c4.7,1.4,9.8,5.9,12,9.6c2.2,3.5,3.6,7.6,3.6,15.9v66
	h24.6v-66c0-8.3,1.4-12.4,3.6-15.9c2.3-3.7,7.4-8.3,12-9.6c2.3-0.8,4.7-1.2,7.1-1.2c10.9,0,21.9,7.2,21.9,27.4
	c0,16.3,0.3,56.4,0.3,65.3h23.2c0-7.8,0-39.9,0-65.3C682.7,294.1,678.5,281.1,669.8,272.1z"/>
<path class="st0" d="M805,316.3c0-15.4-5.7-27.5-15.7-38.3c-10.7-11.3-25.5-17.7-41-17.7c-16.7,0-31,6.4-42.5,18.5
	c-10.3,10.8-14.4,23.8-14.4,39.7s6.3,31,17.7,41.2c11.9,10.7,24.3,16.2,42.2,16.2c15.2,0,31.2-5.9,41.8-13.7l-15.1-15.1
	c-7.7,5.3-16.8,8.3-26.1,8.5c-12.9,0-27.4-8.2-33.4-19.1l86.3-15.2C804.8,319.8,805,317.8,805,316.3z M716,314.6
	c0.3-17,9.8-33,32.5-33c20.1,0,29.5,13.4,31.7,24L716,316.9V314.6z"/>
<path class="st0" d="M497.2,291.5c-14,0-17.5-8.1-17.5-15.7s4.1-15.7,17.5-15.7s17.6,8.1,17.6,15.7S511.2,291.5,497.2,291.5z"/>
<g>
	<path class="st0" d="M173.1,308.4c0-9.7,7.9-17.6,17.5-17.6s17.6,7.9,17.6,17.5c0,9.7-7.9,17.6-17.5,17.6l0,0
		C181,325.9,173.1,318.1,173.1,308.4z"/>
	<path class="st0" d="M220.4,282.4l42.1-24.3c7-4.1,9.4-13.1,5.4-20.1c-0.6-1.1-1.4-2-2.2-2.9c-13.4-13.7-30.3-23.5-48.9-28.3
		c-7.9-2.1-15.9,2.7-18,10.5c-0.3,1.2-0.5,2.5-0.5,3.7v48.7c0,8.2,6.7,14.7,14.8,14.7C215.7,284.3,218.2,283.6,220.4,282.4z"/>
	<path class="st0" d="M183,269.6V221c0-8.2-6.7-14.7-14.8-14.7c-1.2,0-2.4,0.2-3.6,0.5c-18.6,4.8-35.5,14.5-49,28.3
		c-5.7,5.8-5.6,15.1,0.3,20.8c0.9,0.8,1.8,1.6,2.9,2.2l42.1,24.3c7.1,4.1,16.1,1.7,20.2-5.4C182.3,274.7,183,272.2,183,269.6z"/>
	<path class="st0" d="M228.1,321.1l42.1,24.3c7,4.1,16,1.6,20.1-5.4c0.6-1,1.1-2.2,1.4-3.3c5.2-18.5,5.2-38.1,0-56.6
		c-2.2-7.8-10.3-12.4-18.1-10.2c-1.2,0.3-2.3,0.8-3.4,1.4l-42.1,24.3c-7,4-9.5,13-5.4,20C223.9,318,225.8,319.8,228.1,321.1z"/>
	<path class="st0" d="M160.9,334.4l-42.1,24.3c-7,4.1-9.4,13.1-5.4,20.1c0.6,1.1,1.4,2,2.2,2.9c13.4,13.7,30.3,23.5,48.9,28.3
		c7.9,2.1,15.9-2.7,18-10.5c0.3-1.2,0.5-2.5,0.5-3.7v-48.6c-0.1-8.2-6.8-14.7-14.9-14.7C165.6,332.4,163.1,333.1,160.9,334.4z"/>
	<path class="st0" d="M153.3,295.6l-42.1-24.3c-7-4.1-16-1.6-20.1,5.4c-0.6,1-1.1,2.2-1.4,3.3c-5.2,18.5-5.2,38.1,0,56.6
		c2.2,7.8,10.3,12.4,18.1,10.2c1.2-0.3,2.3-0.8,3.4-1.4l42.2-24.3c7-4,9.5-13,5.4-20.1C157.4,298.8,155.5,296.9,153.3,295.6z"/>
	<path class="st0" d="M198.3,347.1v48.7c0,8.2,6.7,14.7,14.8,14.7c1.2,0,2.5-0.2,3.6-0.5c18.6-4.8,35.5-14.6,48.9-28.3
		c5.7-5.8,5.6-15.1-0.3-20.8c-0.9-0.8-1.8-1.6-2.9-2.2l-42.1-24.3c-7-4.1-16-1.7-20.1,5.3C199,342,198.3,344.6,198.3,347.1z"/>
</g>
<path class="st0" d="M190.6,444C115.7,444,55,383.3,55,308.4s60.7-135.6,135.6-135.6c74.9,0,135.6,60.7,135.6,135.6
	C326.3,383.3,265.5,444,190.6,444C190.6,444,190.6,444,190.6,444z M310.9,308.4c0-66.4-53.9-120.3-120.3-120.2
	c-66.4,0-120.3,53.9-120.2,120.3c0,66.4,53.8,120.2,120.2,120.2C257.1,428.6,310.9,374.8,310.9,308.4z"/>
</svg>
